<?xml version="1.0" standalone="no"?><!DOCTYPE svg PUBLIC "-//W3C//DTD SVG 1.1//EN" "http://www.w3.org/Graphics/SVG/1.1/DTD/svg11.dtd"><svg t="1763043563174" class="icon" viewBox="0 0 1024 1024" version="1.1" xmlns="http://www.w3.org/2000/svg" p-id="22324" xmlns:xlink="http://www.w3.org/1999/xlink" width="200" height="200"><path d="M620.9 67.2H236.5c-30.3 0-54.9 25-54.9 55.9v782.7c0 30.9 24.6 55.9 54.9 55.9h549c30.3 0 54.9-25 54.9-55.9v-615L620.9 67.2z" fill="#F17F20" p-id="22325"></path><path d="M802 925.9H220.1V109.7h379.6v218.9H802z" fill="#FFFFFF" p-id="22326"></path><path d="M802 922.6H220.1V106.4h379.6v218.8H802z" fill="#FF9545" p-id="22327"></path><path d="M488 600.7l77.8 201.8h-33.1l-18.9-52H427l-18.9 52h-32.7l77.8-201.8H488z m16.4 124.3L471 633.7h-1.1l-33.5 91.3h68zM616.7 600.7v201.8h-30.5V600.7h30.5z" fill="#FFFFFF" p-id="22328"></path></svg>