<?xml version="1.0" standalone="no"?><!DOCTYPE svg PUBLIC "-//W3C//DTD SVG 1.1//EN" "http://www.w3.org/Graphics/SVG/1.1/DTD/svg11.dtd"><svg t="1763881099495" class="icon" viewBox="0 0 1024 1024" version="1.1" xmlns="http://www.w3.org/2000/svg" p-id="16973" xmlns:xlink="http://www.w3.org/1999/xlink" width="200" height="200"><path d="M661.15 72L860 261.81V952H164V72h497.15M666 0H152a60 60 0 0 0-60 60v904a60 60 0 0 0 60 60h720a60 60 0 0 0 60-60V256.67a60 60 0 0 0-18.57-43.4L707.39 16.6A60 60 0 0 0 666 0z" fill="#959CA7" p-id="16974"></path><path d="M530 284H288a36 36 0 0 1 0-72h242a36 36 0 0 1 0 72zM896 295H684a36 36 0 0 1-36-36V47a36 36 0 0 1 72 0v176h176a36 36 0 0 1 0 72zM530 416H288a36 36 0 0 1 0-72h242a36 36 0 0 1 0 72z" fill="#959CA7" p-id="16975"></path><path d="M92 555m20 0l582 0q20 0 20 20l0 276q0 20-20 20l-582 0q-20 0-20-20l0-276q0-20 20-20Z" fill="#3C87F7" p-id="16976"></path><path d="M161.2 778.32V647.68h48.95q15.52 0 26.92 4.65a43.74 43.74 0 0 1 18.3 13.41 57.75 57.75 0 0 1 10.15 20.4 98.42 98.42 0 0 1 3.26 26.48 107.55 107.55 0 0 1-2 21.57 65.8 65.8 0 0 1-6.46 18.07 45.78 45.78 0 0 1-27.83 22.9 73.1 73.1 0 0 1-22.32 3.16z m27.8-22.4h17.13q16.84 0 25.5-9.85t8.66-32.89a78.56 78.56 0 0 0-1.67-17.11 42.8 42.8 0 0 0-5.46-13.48 24.75 24.75 0 0 0-10.62-9.27 38 38 0 0 0-16.41-3.25H189zM283.8 721.57V705.3q0-27.94 15.12-44t41.63-16.08q26.56 0 41.56 16.13t15 44v16.27q0 27.66-15 43.45t-41.7 15.79q-26.61 0-41.58-15.79t-15.03-43.5z m28.14 0.13q0 17.69 7.75 26.91t20.77 9.22q13 0 20.77-9.22T369 721.7v-16.63q0-17.78-7.8-27.34t-20.72-9.56q-12.92 0-20.72 9.61t-7.8 27.29zM413.67 720.51v-14.74q0-28.61 14.64-44.6t40.67-16a61.43 61.43 0 0 1 21.68 3.68 46.93 46.93 0 0 1 16.38 10 45.07 45.07 0 0 1 13.8 32.63v2.78h-26.49a26.3 26.3 0 0 0-6.7-18.14q-6.7-7.5-18.47-7.5-12.73 0-20 9.48t-7.32 27.78v14.67q0 18.3 7.27 27.54t20.29 9.24q11.87 0 18.42-7t6.56-17.52h26.51v2.87a42.19 42.19 0 0 1-3.54 17.08 45 45 0 0 1-10 14.36 46.06 46.06 0 0 1-16.43 10 63.2 63.2 0 0 1-22 3.68q-26.13 0-40.67-15.84t-14.6-44.45zM527.84 778.32l40-65.84-39.84-64.8h32.63l25.94 46h1.24l25.74-46h31.2l-41.25 65.46 40.67 65.17h-31.53l-26.8-45.17h-1.24l-26.8 45.17z" fill="#FFFFFF" p-id="16977"></path></svg>