<?xml version="1.0" standalone="no"?><!DOCTYPE svg PUBLIC "-//W3C//DTD SVG 1.1//EN" "http://www.w3.org/Graphics/SVG/1.1/DTD/svg11.dtd"><svg t="1763043257632" class="icon" viewBox="0 0 1024 1024" version="1.1" xmlns="http://www.w3.org/2000/svg" p-id="4315" xmlns:xlink="http://www.w3.org/1999/xlink" width="200" height="200"><path d="M512 957c-60.1 0-118.3-11.8-173.2-35-53-22.4-100.6-54.5-141.4-95.4s-72.9-88.4-95.4-141.4C78.8 630.3 67 572.1 67 512s11.8-118.3 35-173.2c22.4-53 54.5-100.6 95.4-141.4s88.4-72.9 141.4-95.4C393.7 78.8 451.9 67 512 67s118.3 11.8 173.2 35c53 22.4 100.6 54.5 141.4 95.4 40.9 40.9 72.9 88.4 95.4 141.4 23.2 54.9 35 113.2 35 173.2s-11.8 118.3-35 173.2c-22.4 53-54.5 100.6-95.4 141.4-40.9 40.9-88.4 72.9-141.4 95.4-54.9 23.2-113.1 35-173.2 35z m0-818c-205.7 0-373 167.3-373 373s167.3 373 373 373 373-167.3 373-373-167.3-373-373-373z" fill="#C6E9A8" p-id="4316"></path><path d="M791.9 548c-19.9 0-36-16.1-36-36 0-134.5-109.4-243.9-243.9-243.9S268.1 377.5 268.1 512c0 19.9-16.1 36-36 36s-36-16.1-36-36c0-84.4 32.9-163.7 92.5-223.4 59.7-59.7 139-92.5 223.4-92.5s163.7 32.9 223.4 92.5c59.7 59.7 92.5 139 92.5 223.4 0 19.9-16.1 36-36 36z" fill="#C6E9A8" p-id="4317"></path><path d="M512.1 663.7c-3 0-6-0.4-9.1-1.2-19.2-5-30.8-24.6-25.8-43.9l56.9-219.5c5-19.2 24.6-30.8 43.9-25.8 19.2 5 30.8 24.6 25.8 43.9L547 636.7c-4.2 16.2-18.9 27-34.9 27z" fill="#C6E9A8" p-id="4318"></path></svg>