<?xml version="1.0" standalone="no"?><!DOCTYPE svg PUBLIC "-//W3C//DTD SVG 1.1//EN" "http://www.w3.org/Graphics/SVG/1.1/DTD/svg11.dtd"><svg t="1763043689625" class="icon" viewBox="0 0 1024 1024" version="1.1" xmlns="http://www.w3.org/2000/svg" p-id="9952" xmlns:xlink="http://www.w3.org/1999/xlink" width="200" height="200"><path d="M853.333333 955.733333H512a17.066667 17.066667 0 1 1 0-34.133333h68.266667v-51.2h-68.266667c-66.030933 0-102.4-36.369067-102.4-102.4v-153.6H170.666667a17.066667 17.066667 0 1 1 0-34.133333h68.266666v-51.2h-68.266666c-66.030933 0-102.4-36.369067-102.4-102.4V170.666667c0-66.030933 36.369067-102.4 102.4-102.4h341.333333c66.030933 0 102.4 36.369067 102.4 102.4v238.933333h238.933333c66.030933 0 102.4 36.369067 102.4 102.4v256c0 66.030933-36.369067 102.4-102.4 102.4h-68.266666v51.2h68.266666a17.066667 17.066667 0 1 1 0 34.133333z m-238.933333-34.133333h136.533333v-51.2h-136.533333v51.2z m153.6-85.333333h85.333333c41.079467 0 62.3616-15.957333 67.208534-51.2H444.808533c4.829867 35.242667 26.112 51.2 67.191467 51.2h256z m-324.266667-85.333334h477.866667V512c0-47.223467-21.0432-68.266667-68.266667-68.266667H507.170133C463.291733 445.218133 443.733333 466.2784 443.733333 512v238.933333zM273.066667 580.266667h136.533333v-51.2h-136.533333v51.2z m-17.066667-85.333334h154.4704c2.218667-20.6336 8.584533-37.802667 18.8416-51.2H103.4752c4.829867 35.242667 26.112 51.2 67.191467 51.2h85.333333z m250.965333-85.333333H580.266667V170.666667c0-47.223467-21.0432-68.266667-68.266667-68.266667H170.666667c-47.223467 0-68.266667 21.0432-68.266667 68.266667v238.933333H506.965333z" p-id="9953" fill="#1296db"></path></svg>